<mxfile host="Electron" modified="2024-05-15T13:00:00.996Z" agent="Mozilla/5.0 (Windows NT 10.0; Win64; x64) AppleWebKit/537.36 (KHTML, like Gecko) draw.io/22.1.18 Chrome/120.0.6099.199 Electron/28.1.2 Safari/537.36" etag="LrBGQlTJl9T5LI7oR4Hq" version="22.1.18" type="device">
  <diagram name="Page-1" id="7TTD3cpKinKYoJwU7Lcs">
    <mxGraphModel dx="2085" dy="2271" grid="1" gridSize="10" guides="1" tooltips="1" connect="1" arrows="1" fold="1" page="1" pageScale="1" pageWidth="850" pageHeight="1100" math="0" shadow="0">
      <root>
        <mxCell id="0" />
        <mxCell id="1" parent="0" />
        <mxCell id="F35jx74PrOIdeF3ReqpK-1" value="&lt;h1&gt;Prim&#39;s Algorithm&lt;/h1&gt;&lt;p&gt;&lt;/p&gt;&lt;ul style=&quot;font-size: 17px;&quot;&gt;&lt;li&gt;Greedy algorithm&lt;/li&gt;&lt;li&gt;Subdivides the problem into smaller pieces, solves those and then adds to the solution step by step, rather than trying to solve the whole problem at once&lt;/li&gt;&lt;/ul&gt;&lt;p&gt;&lt;/p&gt;" style="text;html=1;strokeColor=none;fillColor=none;spacing=5;spacingTop=-20;whiteSpace=wrap;overflow=hidden;rounded=0;" parent="1" vertex="1">
          <mxGeometry x="340" y="-20" width="410" height="160" as="geometry" />
        </mxCell>
        <mxCell id="PL-AgUQmlZ-1JZNhK2am-4" style="rounded=0;orthogonalLoop=1;jettySize=auto;html=1;exitX=0.5;exitY=1;exitDx=0;exitDy=0;entryX=0.5;entryY=0;entryDx=0;entryDy=0;endArrow=none;endFill=0;" parent="1" source="F35jx74PrOIdeF3ReqpK-2" target="F35jx74PrOIdeF3ReqpK-11" edge="1">
          <mxGeometry relative="1" as="geometry" />
        </mxCell>
        <mxCell id="F35jx74PrOIdeF3ReqpK-2" value="&lt;font style=&quot;font-size: 18px;&quot;&gt;&lt;b&gt;D&lt;/b&gt;&lt;/font&gt;" style="ellipse;whiteSpace=wrap;html=1;aspect=fixed;" parent="1" vertex="1">
          <mxGeometry x="640" y="200" width="40" height="40" as="geometry" />
        </mxCell>
        <mxCell id="PL-AgUQmlZ-1JZNhK2am-3" style="rounded=0;orthogonalLoop=1;jettySize=auto;html=1;exitX=1;exitY=0.5;exitDx=0;exitDy=0;entryX=0;entryY=0.5;entryDx=0;entryDy=0;endArrow=none;endFill=0;" parent="1" source="F35jx74PrOIdeF3ReqpK-5" target="F35jx74PrOIdeF3ReqpK-11" edge="1">
          <mxGeometry relative="1" as="geometry" />
        </mxCell>
        <mxCell id="w3LlIIUNzbDRQgeO9Z__-14" style="rounded=0;orthogonalLoop=1;jettySize=auto;html=1;exitX=1;exitY=0;exitDx=0;exitDy=0;entryX=0;entryY=1;entryDx=0;entryDy=0;endArrow=none;endFill=0;" parent="1" source="F35jx74PrOIdeF3ReqpK-5" target="F35jx74PrOIdeF3ReqpK-2" edge="1">
          <mxGeometry relative="1" as="geometry" />
        </mxCell>
        <mxCell id="F35jx74PrOIdeF3ReqpK-5" value="&lt;font style=&quot;font-size: 18px;&quot;&gt;&lt;b&gt;C&lt;/b&gt;&lt;/font&gt;" style="ellipse;whiteSpace=wrap;html=1;aspect=fixed;" parent="1" vertex="1">
          <mxGeometry x="440" y="360" width="40" height="40" as="geometry" />
        </mxCell>
        <mxCell id="w3LlIIUNzbDRQgeO9Z__-1" style="rounded=0;orthogonalLoop=1;jettySize=auto;html=1;exitX=1;exitY=0;exitDx=0;exitDy=0;entryX=0;entryY=0.5;entryDx=0;entryDy=0;endArrow=none;endFill=0;" parent="1" source="F35jx74PrOIdeF3ReqpK-8" target="F35jx74PrOIdeF3ReqpK-9" edge="1">
          <mxGeometry relative="1" as="geometry" />
        </mxCell>
        <mxCell id="w3LlIIUNzbDRQgeO9Z__-3" style="rounded=0;orthogonalLoop=1;jettySize=auto;html=1;exitX=1;exitY=1;exitDx=0;exitDy=0;entryX=0;entryY=0.5;entryDx=0;entryDy=0;endArrow=none;endFill=0;" parent="1" source="F35jx74PrOIdeF3ReqpK-8" target="F35jx74PrOIdeF3ReqpK-5" edge="1">
          <mxGeometry relative="1" as="geometry" />
        </mxCell>
        <mxCell id="F35jx74PrOIdeF3ReqpK-8" value="&lt;font style=&quot;font-size: 18px;&quot;&gt;&lt;b&gt;A&lt;/b&gt;&lt;/font&gt;" style="ellipse;whiteSpace=wrap;html=1;aspect=fixed;fillColor=#dae8fc;strokeColor=#6c8ebf;" parent="1" vertex="1">
          <mxGeometry x="280" y="280" width="40" height="40" as="geometry" />
        </mxCell>
        <mxCell id="PL-AgUQmlZ-1JZNhK2am-1" style="rounded=0;orthogonalLoop=1;jettySize=auto;html=1;exitX=1;exitY=0.5;exitDx=0;exitDy=0;entryX=0;entryY=0.5;entryDx=0;entryDy=0;endArrow=none;endFill=0;" parent="1" source="F35jx74PrOIdeF3ReqpK-9" target="F35jx74PrOIdeF3ReqpK-2" edge="1">
          <mxGeometry relative="1" as="geometry" />
        </mxCell>
        <mxCell id="PL-AgUQmlZ-1JZNhK2am-2" style="rounded=0;orthogonalLoop=1;jettySize=auto;html=1;exitX=0.5;exitY=1;exitDx=0;exitDy=0;entryX=0.5;entryY=0;entryDx=0;entryDy=0;endArrow=none;endFill=0;" parent="1" source="F35jx74PrOIdeF3ReqpK-9" target="F35jx74PrOIdeF3ReqpK-5" edge="1">
          <mxGeometry relative="1" as="geometry" />
        </mxCell>
        <mxCell id="F35jx74PrOIdeF3ReqpK-9" value="&lt;font style=&quot;font-size: 18px;&quot;&gt;&lt;b&gt;B&lt;/b&gt;&lt;/font&gt;" style="ellipse;whiteSpace=wrap;html=1;aspect=fixed;" parent="1" vertex="1">
          <mxGeometry x="440" y="200" width="40" height="40" as="geometry" />
        </mxCell>
        <mxCell id="F35jx74PrOIdeF3ReqpK-11" value="&lt;font style=&quot;font-size: 18px;&quot;&gt;&lt;b&gt;E&lt;/b&gt;&lt;/font&gt;" style="ellipse;whiteSpace=wrap;html=1;aspect=fixed;" parent="1" vertex="1">
          <mxGeometry x="640" y="360" width="40" height="40" as="geometry" />
        </mxCell>
        <mxCell id="w3LlIIUNzbDRQgeO9Z__-4" value="10" style="text;html=1;strokeColor=none;fillColor=none;align=center;verticalAlign=middle;whiteSpace=wrap;rounded=0;" parent="1" vertex="1">
          <mxGeometry x="350" y="220" width="30" height="30" as="geometry" />
        </mxCell>
        <mxCell id="w3LlIIUNzbDRQgeO9Z__-7" value="15" style="text;html=1;strokeColor=none;fillColor=none;align=center;verticalAlign=middle;whiteSpace=wrap;rounded=0;" parent="1" vertex="1">
          <mxGeometry x="540" y="260" width="30" height="30" as="geometry" />
        </mxCell>
        <mxCell id="w3LlIIUNzbDRQgeO9Z__-8" value="30" style="text;html=1;strokeColor=none;fillColor=none;align=center;verticalAlign=middle;whiteSpace=wrap;rounded=0;" parent="1" vertex="1">
          <mxGeometry x="425" y="285" width="30" height="30" as="geometry" />
        </mxCell>
        <mxCell id="w3LlIIUNzbDRQgeO9Z__-9" value="20" style="text;html=1;strokeColor=none;fillColor=none;align=center;verticalAlign=middle;whiteSpace=wrap;rounded=0;" parent="1" vertex="1">
          <mxGeometry x="360" y="355" width="30" height="30" as="geometry" />
        </mxCell>
        <mxCell id="w3LlIIUNzbDRQgeO9Z__-10" value="6" style="text;html=1;strokeColor=none;fillColor=none;align=center;verticalAlign=middle;whiteSpace=wrap;rounded=0;" parent="1" vertex="1">
          <mxGeometry x="550" y="390" width="30" height="30" as="geometry" />
        </mxCell>
        <mxCell id="w3LlIIUNzbDRQgeO9Z__-11" value="8" style="text;html=1;strokeColor=none;fillColor=none;align=center;verticalAlign=middle;whiteSpace=wrap;rounded=0;" parent="1" vertex="1">
          <mxGeometry x="670" y="280" width="30" height="30" as="geometry" />
        </mxCell>
        <mxCell id="w3LlIIUNzbDRQgeO9Z__-12" value="5" style="text;html=1;strokeColor=none;fillColor=none;align=center;verticalAlign=middle;whiteSpace=wrap;rounded=0;" parent="1" vertex="1">
          <mxGeometry x="550" y="180" width="30" height="30" as="geometry" />
        </mxCell>
        <mxCell id="w3LlIIUNzbDRQgeO9Z__-34" value="" style="shape=flexArrow;endArrow=classic;html=1;rounded=0;" parent="1" edge="1">
          <mxGeometry width="50" height="50" relative="1" as="geometry">
            <mxPoint x="554.5" y="450" as="sourcePoint" />
            <mxPoint x="554.5" y="540" as="targetPoint" />
          </mxGeometry>
        </mxCell>
        <mxCell id="w3LlIIUNzbDRQgeO9Z__-35" value="&lt;span style=&quot;font-size: 16px;&quot;&gt;&lt;b&gt;Processing Steps:&lt;/b&gt;&lt;br&gt;&lt;ul&gt;&lt;li&gt;&lt;span style=&quot;font-size: 16px;&quot;&gt;Take any arbitrary vertex as a source and set its weight to 0; set the weight of all other vertices to infinity&lt;/span&gt;&lt;/li&gt;&lt;li&gt;Loop through the edges formed by adjacent vertices; if the edge weight is less than what we currently have for that vertex, set the vertex to the new edge weight value&lt;/li&gt;&lt;li&gt;Mark the vertex as visited, since we have determined the lowest cost means to get to it&lt;/li&gt;&lt;li&gt;Repeat these steps for all vertices in increasing weight order&lt;/li&gt;&lt;/ul&gt;&lt;/span&gt;" style="text;html=1;strokeColor=none;fillColor=none;align=left;verticalAlign=middle;whiteSpace=wrap;rounded=0;" parent="1" vertex="1">
          <mxGeometry x="-180" y="1060" width="280" height="440" as="geometry" />
        </mxCell>
        <mxCell id="w3LlIIUNzbDRQgeO9Z__-36" value="&lt;font style=&quot;font-size: 18px;&quot;&gt;&lt;b&gt;A&lt;/b&gt;&lt;/font&gt;" style="ellipse;whiteSpace=wrap;html=1;aspect=fixed;fillColor=#dae8fc;strokeColor=#6c8ebf;" parent="1" vertex="1">
          <mxGeometry x="840" y="190" width="40" height="40" as="geometry" />
        </mxCell>
        <mxCell id="w3LlIIUNzbDRQgeO9Z__-37" value="&lt;font style=&quot;font-size: 18px;&quot;&gt;&lt;b&gt;B&lt;/b&gt;&lt;/font&gt;" style="ellipse;whiteSpace=wrap;html=1;aspect=fixed;" parent="1" vertex="1">
          <mxGeometry x="920" y="190" width="40" height="40" as="geometry" />
        </mxCell>
        <mxCell id="w3LlIIUNzbDRQgeO9Z__-39" value="&lt;font style=&quot;font-size: 18px;&quot;&gt;&lt;b&gt;C&lt;/b&gt;&lt;/font&gt;" style="ellipse;whiteSpace=wrap;html=1;aspect=fixed;" parent="1" vertex="1">
          <mxGeometry x="1000" y="190" width="40" height="40" as="geometry" />
        </mxCell>
        <mxCell id="w3LlIIUNzbDRQgeO9Z__-40" value="&lt;font style=&quot;font-size: 18px;&quot;&gt;&lt;b&gt;D&lt;/b&gt;&lt;/font&gt;" style="ellipse;whiteSpace=wrap;html=1;aspect=fixed;" parent="1" vertex="1">
          <mxGeometry x="1080" y="190" width="40" height="40" as="geometry" />
        </mxCell>
        <mxCell id="w3LlIIUNzbDRQgeO9Z__-41" value="&lt;font style=&quot;font-size: 18px;&quot;&gt;&lt;b&gt;E&lt;/b&gt;&lt;/font&gt;" style="ellipse;whiteSpace=wrap;html=1;aspect=fixed;" parent="1" vertex="1">
          <mxGeometry x="1160" y="190" width="40" height="40" as="geometry" />
        </mxCell>
        <mxCell id="w3LlIIUNzbDRQgeO9Z__-50" value="inf" style="text;html=1;strokeColor=none;fillColor=none;align=center;verticalAlign=middle;whiteSpace=wrap;rounded=0;" parent="1" vertex="1">
          <mxGeometry x="920" y="240" width="40" height="20" as="geometry" />
        </mxCell>
        <mxCell id="w3LlIIUNzbDRQgeO9Z__-51" value="inf" style="text;html=1;strokeColor=none;fillColor=none;align=center;verticalAlign=middle;whiteSpace=wrap;rounded=0;" parent="1" vertex="1">
          <mxGeometry x="1000" y="240" width="40" height="20" as="geometry" />
        </mxCell>
        <mxCell id="w3LlIIUNzbDRQgeO9Z__-52" value="0" style="text;html=1;strokeColor=none;fillColor=none;align=center;verticalAlign=middle;whiteSpace=wrap;rounded=0;" parent="1" vertex="1">
          <mxGeometry x="840" y="240" width="40" height="20" as="geometry" />
        </mxCell>
        <mxCell id="w3LlIIUNzbDRQgeO9Z__-54" value="inf" style="text;html=1;strokeColor=none;fillColor=none;align=center;verticalAlign=middle;whiteSpace=wrap;rounded=0;" parent="1" vertex="1">
          <mxGeometry x="1080" y="240" width="40" height="20" as="geometry" />
        </mxCell>
        <mxCell id="w3LlIIUNzbDRQgeO9Z__-56" value="inf" style="text;html=1;strokeColor=none;fillColor=none;align=center;verticalAlign=middle;whiteSpace=wrap;rounded=0;" parent="1" vertex="1">
          <mxGeometry x="1160" y="240" width="40" height="20" as="geometry" />
        </mxCell>
        <mxCell id="w3LlIIUNzbDRQgeO9Z__-57" value="To initialize, set the source vertex to 0 and all others to infinity" style="text;html=1;strokeColor=none;fillColor=none;align=left;verticalAlign=middle;whiteSpace=wrap;rounded=0;fontSize=14;" parent="1" vertex="1">
          <mxGeometry x="850" y="280" width="210" height="60" as="geometry" />
        </mxCell>
        <mxCell id="w3LlIIUNzbDRQgeO9Z__-113" value="" style="shape=flexArrow;endArrow=classic;html=1;rounded=0;" parent="1" edge="1">
          <mxGeometry width="50" height="50" relative="1" as="geometry">
            <mxPoint x="554.5" y="880" as="sourcePoint" />
            <mxPoint x="554.5" y="970" as="targetPoint" />
          </mxGeometry>
        </mxCell>
        <mxCell id="w3LlIIUNzbDRQgeO9Z__-177" value="" style="shape=flexArrow;endArrow=classic;html=1;rounded=0;" parent="1" edge="1">
          <mxGeometry width="50" height="50" relative="1" as="geometry">
            <mxPoint x="559" y="1290" as="sourcePoint" />
            <mxPoint x="559" y="1380" as="targetPoint" />
          </mxGeometry>
        </mxCell>
        <mxCell id="w3LlIIUNzbDRQgeO9Z__-178" value="" style="shape=flexArrow;endArrow=classic;html=1;rounded=0;" parent="1" edge="1">
          <mxGeometry width="50" height="50" relative="1" as="geometry">
            <mxPoint x="559" y="1700" as="sourcePoint" />
            <mxPoint x="559" y="1790" as="targetPoint" />
          </mxGeometry>
        </mxCell>
        <mxCell id="w3LlIIUNzbDRQgeO9Z__-179" value="" style="shape=flexArrow;endArrow=classic;html=1;rounded=0;" parent="1" edge="1">
          <mxGeometry width="50" height="50" relative="1" as="geometry">
            <mxPoint x="559" y="2150" as="sourcePoint" />
            <mxPoint x="559" y="2240" as="targetPoint" />
          </mxGeometry>
        </mxCell>
        <mxCell id="IO4kXUlpSUVHqf_dKEk6-3" style="rounded=0;orthogonalLoop=1;jettySize=auto;html=1;exitX=0.5;exitY=1;exitDx=0;exitDy=0;entryX=0.5;entryY=0;entryDx=0;entryDy=0;endArrow=none;endFill=0;" edge="1" parent="1" source="IO4kXUlpSUVHqf_dKEk6-4" target="IO4kXUlpSUVHqf_dKEk6-14">
          <mxGeometry relative="1" as="geometry" />
        </mxCell>
        <mxCell id="IO4kXUlpSUVHqf_dKEk6-4" value="&lt;font style=&quot;font-size: 18px;&quot;&gt;&lt;b&gt;D&lt;/b&gt;&lt;/font&gt;" style="ellipse;whiteSpace=wrap;html=1;aspect=fixed;" vertex="1" parent="1">
          <mxGeometry x="680" y="610" width="40" height="40" as="geometry" />
        </mxCell>
        <mxCell id="IO4kXUlpSUVHqf_dKEk6-5" style="rounded=0;orthogonalLoop=1;jettySize=auto;html=1;exitX=1;exitY=0.5;exitDx=0;exitDy=0;entryX=0;entryY=0.5;entryDx=0;entryDy=0;endArrow=none;endFill=0;" edge="1" parent="1" source="IO4kXUlpSUVHqf_dKEk6-7" target="IO4kXUlpSUVHqf_dKEk6-14">
          <mxGeometry relative="1" as="geometry" />
        </mxCell>
        <mxCell id="IO4kXUlpSUVHqf_dKEk6-6" style="rounded=0;orthogonalLoop=1;jettySize=auto;html=1;exitX=1;exitY=0;exitDx=0;exitDy=0;entryX=0;entryY=1;entryDx=0;entryDy=0;endArrow=none;endFill=0;" edge="1" parent="1" source="IO4kXUlpSUVHqf_dKEk6-7" target="IO4kXUlpSUVHqf_dKEk6-4">
          <mxGeometry relative="1" as="geometry" />
        </mxCell>
        <mxCell id="IO4kXUlpSUVHqf_dKEk6-7" value="&lt;font style=&quot;font-size: 18px;&quot;&gt;&lt;b&gt;C&lt;/b&gt;&lt;/font&gt;" style="ellipse;whiteSpace=wrap;html=1;aspect=fixed;fillColor=#f8cecc;strokeColor=#b85450;" vertex="1" parent="1">
          <mxGeometry x="480" y="770" width="40" height="40" as="geometry" />
        </mxCell>
        <mxCell id="IO4kXUlpSUVHqf_dKEk6-8" style="rounded=0;orthogonalLoop=1;jettySize=auto;html=1;exitX=1;exitY=0;exitDx=0;exitDy=0;entryX=0;entryY=0.5;entryDx=0;entryDy=0;endArrow=none;endFill=0;fillColor=#cdeb8b;strokeColor=#009900;strokeWidth=2;" edge="1" parent="1" source="IO4kXUlpSUVHqf_dKEk6-10" target="IO4kXUlpSUVHqf_dKEk6-13">
          <mxGeometry relative="1" as="geometry" />
        </mxCell>
        <mxCell id="IO4kXUlpSUVHqf_dKEk6-9" style="rounded=0;orthogonalLoop=1;jettySize=auto;html=1;exitX=1;exitY=1;exitDx=0;exitDy=0;entryX=0;entryY=0.5;entryDx=0;entryDy=0;endArrow=none;endFill=0;" edge="1" parent="1" source="IO4kXUlpSUVHqf_dKEk6-10" target="IO4kXUlpSUVHqf_dKEk6-7">
          <mxGeometry relative="1" as="geometry" />
        </mxCell>
        <mxCell id="IO4kXUlpSUVHqf_dKEk6-10" value="&lt;font style=&quot;font-size: 18px;&quot;&gt;&lt;b&gt;A&lt;/b&gt;&lt;/font&gt;" style="ellipse;whiteSpace=wrap;html=1;aspect=fixed;fillColor=#cce5ff;strokeColor=#36393d;" vertex="1" parent="1">
          <mxGeometry x="320" y="690" width="40" height="40" as="geometry" />
        </mxCell>
        <mxCell id="IO4kXUlpSUVHqf_dKEk6-11" style="rounded=0;orthogonalLoop=1;jettySize=auto;html=1;exitX=1;exitY=0.5;exitDx=0;exitDy=0;entryX=0;entryY=0.5;entryDx=0;entryDy=0;endArrow=none;endFill=0;" edge="1" parent="1" source="IO4kXUlpSUVHqf_dKEk6-13" target="IO4kXUlpSUVHqf_dKEk6-4">
          <mxGeometry relative="1" as="geometry" />
        </mxCell>
        <mxCell id="IO4kXUlpSUVHqf_dKEk6-12" style="rounded=0;orthogonalLoop=1;jettySize=auto;html=1;exitX=0.5;exitY=1;exitDx=0;exitDy=0;entryX=0.5;entryY=0;entryDx=0;entryDy=0;endArrow=none;endFill=0;" edge="1" parent="1" source="IO4kXUlpSUVHqf_dKEk6-13" target="IO4kXUlpSUVHqf_dKEk6-7">
          <mxGeometry relative="1" as="geometry" />
        </mxCell>
        <mxCell id="IO4kXUlpSUVHqf_dKEk6-13" value="&lt;font style=&quot;font-size: 18px;&quot;&gt;&lt;b&gt;B&lt;/b&gt;&lt;/font&gt;" style="ellipse;whiteSpace=wrap;html=1;aspect=fixed;fillColor=#f8cecc;strokeColor=#b85450;" vertex="1" parent="1">
          <mxGeometry x="480" y="610" width="40" height="40" as="geometry" />
        </mxCell>
        <mxCell id="IO4kXUlpSUVHqf_dKEk6-14" value="&lt;font style=&quot;font-size: 18px;&quot;&gt;&lt;b&gt;E&lt;/b&gt;&lt;/font&gt;" style="ellipse;whiteSpace=wrap;html=1;aspect=fixed;" vertex="1" parent="1">
          <mxGeometry x="680" y="770" width="40" height="40" as="geometry" />
        </mxCell>
        <mxCell id="IO4kXUlpSUVHqf_dKEk6-15" value="10" style="text;html=1;strokeColor=none;fillColor=none;align=center;verticalAlign=middle;whiteSpace=wrap;rounded=0;" vertex="1" parent="1">
          <mxGeometry x="390" y="630" width="30" height="30" as="geometry" />
        </mxCell>
        <mxCell id="IO4kXUlpSUVHqf_dKEk6-16" value="15" style="text;html=1;strokeColor=none;fillColor=none;align=center;verticalAlign=middle;whiteSpace=wrap;rounded=0;" vertex="1" parent="1">
          <mxGeometry x="580" y="670" width="30" height="30" as="geometry" />
        </mxCell>
        <mxCell id="IO4kXUlpSUVHqf_dKEk6-17" value="30" style="text;html=1;strokeColor=none;fillColor=none;align=center;verticalAlign=middle;whiteSpace=wrap;rounded=0;" vertex="1" parent="1">
          <mxGeometry x="465" y="695" width="30" height="30" as="geometry" />
        </mxCell>
        <mxCell id="IO4kXUlpSUVHqf_dKEk6-18" value="20" style="text;html=1;strokeColor=none;fillColor=none;align=center;verticalAlign=middle;whiteSpace=wrap;rounded=0;" vertex="1" parent="1">
          <mxGeometry x="400" y="765" width="30" height="30" as="geometry" />
        </mxCell>
        <mxCell id="IO4kXUlpSUVHqf_dKEk6-19" value="6" style="text;html=1;strokeColor=none;fillColor=none;align=center;verticalAlign=middle;whiteSpace=wrap;rounded=0;" vertex="1" parent="1">
          <mxGeometry x="590" y="800" width="30" height="30" as="geometry" />
        </mxCell>
        <mxCell id="IO4kXUlpSUVHqf_dKEk6-20" value="8" style="text;html=1;strokeColor=none;fillColor=none;align=center;verticalAlign=middle;whiteSpace=wrap;rounded=0;" vertex="1" parent="1">
          <mxGeometry x="710" y="690" width="30" height="30" as="geometry" />
        </mxCell>
        <mxCell id="IO4kXUlpSUVHqf_dKEk6-21" value="5" style="text;html=1;strokeColor=none;fillColor=none;align=center;verticalAlign=middle;whiteSpace=wrap;rounded=0;" vertex="1" parent="1">
          <mxGeometry x="590" y="590" width="30" height="30" as="geometry" />
        </mxCell>
        <mxCell id="IO4kXUlpSUVHqf_dKEk6-22" value="&lt;font style=&quot;font-size: 18px;&quot;&gt;&lt;b&gt;A&lt;/b&gt;&lt;/font&gt;" style="ellipse;whiteSpace=wrap;html=1;aspect=fixed;fillColor=#cce5ff;strokeColor=#36393d;" vertex="1" parent="1">
          <mxGeometry x="850" y="610" width="40" height="40" as="geometry" />
        </mxCell>
        <mxCell id="IO4kXUlpSUVHqf_dKEk6-23" value="&lt;font style=&quot;font-size: 18px;&quot;&gt;&lt;b&gt;B&lt;/b&gt;&lt;/font&gt;" style="ellipse;whiteSpace=wrap;html=1;aspect=fixed;fillColor=#f8cecc;strokeColor=#b85450;" vertex="1" parent="1">
          <mxGeometry x="930" y="610" width="40" height="40" as="geometry" />
        </mxCell>
        <mxCell id="IO4kXUlpSUVHqf_dKEk6-24" value="&lt;font style=&quot;font-size: 18px;&quot;&gt;&lt;b&gt;C&lt;/b&gt;&lt;/font&gt;" style="ellipse;whiteSpace=wrap;html=1;aspect=fixed;fillColor=#f8cecc;strokeColor=#b85450;" vertex="1" parent="1">
          <mxGeometry x="1010" y="610" width="40" height="40" as="geometry" />
        </mxCell>
        <mxCell id="IO4kXUlpSUVHqf_dKEk6-25" value="&lt;font style=&quot;font-size: 18px;&quot;&gt;&lt;b&gt;D&lt;/b&gt;&lt;/font&gt;" style="ellipse;whiteSpace=wrap;html=1;aspect=fixed;" vertex="1" parent="1">
          <mxGeometry x="1090" y="610" width="40" height="40" as="geometry" />
        </mxCell>
        <mxCell id="IO4kXUlpSUVHqf_dKEk6-26" value="&lt;font style=&quot;font-size: 18px;&quot;&gt;&lt;b&gt;E&lt;/b&gt;&lt;/font&gt;" style="ellipse;whiteSpace=wrap;html=1;aspect=fixed;" vertex="1" parent="1">
          <mxGeometry x="1170" y="610" width="40" height="40" as="geometry" />
        </mxCell>
        <mxCell id="IO4kXUlpSUVHqf_dKEk6-27" value="10" style="text;html=1;strokeColor=none;fillColor=none;align=center;verticalAlign=middle;whiteSpace=wrap;rounded=0;" vertex="1" parent="1">
          <mxGeometry x="930" y="660" width="40" height="20" as="geometry" />
        </mxCell>
        <mxCell id="IO4kXUlpSUVHqf_dKEk6-28" value="20" style="text;html=1;strokeColor=none;fillColor=none;align=center;verticalAlign=middle;whiteSpace=wrap;rounded=0;" vertex="1" parent="1">
          <mxGeometry x="1010" y="660" width="40" height="20" as="geometry" />
        </mxCell>
        <mxCell id="IO4kXUlpSUVHqf_dKEk6-29" value="0" style="text;html=1;strokeColor=none;fillColor=none;align=center;verticalAlign=middle;whiteSpace=wrap;rounded=0;" vertex="1" parent="1">
          <mxGeometry x="850" y="660" width="40" height="20" as="geometry" />
        </mxCell>
        <mxCell id="IO4kXUlpSUVHqf_dKEk6-30" value="inf" style="text;html=1;strokeColor=none;fillColor=none;align=center;verticalAlign=middle;whiteSpace=wrap;rounded=0;" vertex="1" parent="1">
          <mxGeometry x="1090" y="660" width="40" height="20" as="geometry" />
        </mxCell>
        <mxCell id="IO4kXUlpSUVHqf_dKEk6-31" value="inf" style="text;html=1;strokeColor=none;fillColor=none;align=center;verticalAlign=middle;whiteSpace=wrap;rounded=0;" vertex="1" parent="1">
          <mxGeometry x="1170" y="660" width="40" height="20" as="geometry" />
        </mxCell>
        <mxCell id="IO4kXUlpSUVHqf_dKEk6-32" value="B -&amp;gt; C == 30.&amp;nbsp; This is greater than 20, so we don&#39;t update the C node." style="text;html=1;strokeColor=none;fillColor=none;align=left;verticalAlign=middle;whiteSpace=wrap;rounded=0;fontSize=14;" vertex="1" parent="1">
          <mxGeometry x="860" y="1140" width="340" height="40" as="geometry" />
        </mxCell>
        <mxCell id="IO4kXUlpSUVHqf_dKEk6-33" style="rounded=0;orthogonalLoop=1;jettySize=auto;html=1;exitX=0.5;exitY=1;exitDx=0;exitDy=0;entryX=0.5;entryY=0;entryDx=0;entryDy=0;endArrow=none;endFill=0;" edge="1" parent="1" source="IO4kXUlpSUVHqf_dKEk6-34" target="IO4kXUlpSUVHqf_dKEk6-44">
          <mxGeometry relative="1" as="geometry" />
        </mxCell>
        <mxCell id="IO4kXUlpSUVHqf_dKEk6-34" value="&lt;font style=&quot;font-size: 18px;&quot;&gt;&lt;b&gt;D&lt;/b&gt;&lt;/font&gt;" style="ellipse;whiteSpace=wrap;html=1;aspect=fixed;fillColor=#ffcccc;strokeColor=#36393d;" vertex="1" parent="1">
          <mxGeometry x="680" y="1030" width="40" height="40" as="geometry" />
        </mxCell>
        <mxCell id="IO4kXUlpSUVHqf_dKEk6-35" style="rounded=0;orthogonalLoop=1;jettySize=auto;html=1;exitX=1;exitY=0.5;exitDx=0;exitDy=0;entryX=0;entryY=0.5;entryDx=0;entryDy=0;endArrow=none;endFill=0;" edge="1" parent="1" source="IO4kXUlpSUVHqf_dKEk6-37" target="IO4kXUlpSUVHqf_dKEk6-44">
          <mxGeometry relative="1" as="geometry" />
        </mxCell>
        <mxCell id="IO4kXUlpSUVHqf_dKEk6-36" style="rounded=0;orthogonalLoop=1;jettySize=auto;html=1;exitX=1;exitY=0;exitDx=0;exitDy=0;entryX=0;entryY=1;entryDx=0;entryDy=0;endArrow=none;endFill=0;" edge="1" parent="1" source="IO4kXUlpSUVHqf_dKEk6-37" target="IO4kXUlpSUVHqf_dKEk6-34">
          <mxGeometry relative="1" as="geometry" />
        </mxCell>
        <mxCell id="IO4kXUlpSUVHqf_dKEk6-37" value="&lt;font style=&quot;font-size: 18px;&quot;&gt;&lt;b&gt;C&lt;/b&gt;&lt;/font&gt;" style="ellipse;whiteSpace=wrap;html=1;aspect=fixed;fillColor=#f8cecc;strokeColor=#b85450;" vertex="1" parent="1">
          <mxGeometry x="480" y="1190" width="40" height="40" as="geometry" />
        </mxCell>
        <mxCell id="IO4kXUlpSUVHqf_dKEk6-38" style="rounded=0;orthogonalLoop=1;jettySize=auto;html=1;exitX=1;exitY=0;exitDx=0;exitDy=0;entryX=0;entryY=0.5;entryDx=0;entryDy=0;endArrow=none;endFill=0;fillColor=#cdeb8b;strokeColor=#009900;strokeWidth=2;" edge="1" parent="1" source="IO4kXUlpSUVHqf_dKEk6-40" target="IO4kXUlpSUVHqf_dKEk6-43">
          <mxGeometry relative="1" as="geometry" />
        </mxCell>
        <mxCell id="IO4kXUlpSUVHqf_dKEk6-39" style="rounded=0;orthogonalLoop=1;jettySize=auto;html=1;exitX=1;exitY=1;exitDx=0;exitDy=0;entryX=0;entryY=0.5;entryDx=0;entryDy=0;endArrow=none;endFill=0;" edge="1" parent="1" source="IO4kXUlpSUVHqf_dKEk6-40" target="IO4kXUlpSUVHqf_dKEk6-37">
          <mxGeometry relative="1" as="geometry" />
        </mxCell>
        <mxCell id="IO4kXUlpSUVHqf_dKEk6-40" value="&lt;font style=&quot;font-size: 18px;&quot;&gt;&lt;b&gt;A&lt;/b&gt;&lt;/font&gt;" style="ellipse;whiteSpace=wrap;html=1;aspect=fixed;fillColor=#CCCCCC;" vertex="1" parent="1">
          <mxGeometry x="320" y="1110" width="40" height="40" as="geometry" />
        </mxCell>
        <mxCell id="IO4kXUlpSUVHqf_dKEk6-41" style="rounded=0;orthogonalLoop=1;jettySize=auto;html=1;exitX=1;exitY=0.5;exitDx=0;exitDy=0;entryX=0;entryY=0.5;entryDx=0;entryDy=0;endArrow=none;endFill=0;strokeColor=#009900;strokeWidth=2;" edge="1" parent="1" source="IO4kXUlpSUVHqf_dKEk6-43" target="IO4kXUlpSUVHqf_dKEk6-34">
          <mxGeometry relative="1" as="geometry" />
        </mxCell>
        <mxCell id="IO4kXUlpSUVHqf_dKEk6-42" style="rounded=0;orthogonalLoop=1;jettySize=auto;html=1;exitX=0.5;exitY=1;exitDx=0;exitDy=0;entryX=0.5;entryY=0;entryDx=0;entryDy=0;endArrow=none;endFill=0;" edge="1" parent="1" source="IO4kXUlpSUVHqf_dKEk6-43" target="IO4kXUlpSUVHqf_dKEk6-37">
          <mxGeometry relative="1" as="geometry" />
        </mxCell>
        <mxCell id="IO4kXUlpSUVHqf_dKEk6-43" value="&lt;font style=&quot;font-size: 18px;&quot;&gt;&lt;b&gt;B&lt;/b&gt;&lt;/font&gt;" style="ellipse;whiteSpace=wrap;html=1;aspect=fixed;fillColor=#cce5ff;strokeColor=#36393d;" vertex="1" parent="1">
          <mxGeometry x="480" y="1030" width="40" height="40" as="geometry" />
        </mxCell>
        <mxCell id="IO4kXUlpSUVHqf_dKEk6-44" value="&lt;font style=&quot;font-size: 18px;&quot;&gt;&lt;b&gt;E&lt;/b&gt;&lt;/font&gt;" style="ellipse;whiteSpace=wrap;html=1;aspect=fixed;" vertex="1" parent="1">
          <mxGeometry x="680" y="1190" width="40" height="40" as="geometry" />
        </mxCell>
        <mxCell id="IO4kXUlpSUVHqf_dKEk6-45" value="10" style="text;html=1;strokeColor=none;fillColor=none;align=center;verticalAlign=middle;whiteSpace=wrap;rounded=0;" vertex="1" parent="1">
          <mxGeometry x="390" y="1050" width="30" height="30" as="geometry" />
        </mxCell>
        <mxCell id="IO4kXUlpSUVHqf_dKEk6-46" value="15" style="text;html=1;strokeColor=none;fillColor=none;align=center;verticalAlign=middle;whiteSpace=wrap;rounded=0;" vertex="1" parent="1">
          <mxGeometry x="580" y="1090" width="30" height="30" as="geometry" />
        </mxCell>
        <mxCell id="IO4kXUlpSUVHqf_dKEk6-47" value="30" style="text;html=1;strokeColor=none;fillColor=none;align=center;verticalAlign=middle;whiteSpace=wrap;rounded=0;" vertex="1" parent="1">
          <mxGeometry x="465" y="1115" width="30" height="30" as="geometry" />
        </mxCell>
        <mxCell id="IO4kXUlpSUVHqf_dKEk6-48" value="20" style="text;html=1;strokeColor=none;fillColor=none;align=center;verticalAlign=middle;whiteSpace=wrap;rounded=0;" vertex="1" parent="1">
          <mxGeometry x="400" y="1185" width="30" height="30" as="geometry" />
        </mxCell>
        <mxCell id="IO4kXUlpSUVHqf_dKEk6-49" value="6" style="text;html=1;strokeColor=none;fillColor=none;align=center;verticalAlign=middle;whiteSpace=wrap;rounded=0;" vertex="1" parent="1">
          <mxGeometry x="590" y="1220" width="30" height="30" as="geometry" />
        </mxCell>
        <mxCell id="IO4kXUlpSUVHqf_dKEk6-50" value="8" style="text;html=1;strokeColor=none;fillColor=none;align=center;verticalAlign=middle;whiteSpace=wrap;rounded=0;" vertex="1" parent="1">
          <mxGeometry x="710" y="1110" width="30" height="30" as="geometry" />
        </mxCell>
        <mxCell id="IO4kXUlpSUVHqf_dKEk6-51" value="5" style="text;html=1;strokeColor=none;fillColor=none;align=center;verticalAlign=middle;whiteSpace=wrap;rounded=0;" vertex="1" parent="1">
          <mxGeometry x="590" y="1010" width="30" height="30" as="geometry" />
        </mxCell>
        <mxCell id="IO4kXUlpSUVHqf_dKEk6-52" value="&lt;font style=&quot;font-size: 18px;&quot;&gt;&lt;b&gt;A&lt;/b&gt;&lt;/font&gt;" style="ellipse;whiteSpace=wrap;html=1;aspect=fixed;fillColor=#CCCCCC;" vertex="1" parent="1">
          <mxGeometry x="850" y="1040" width="40" height="40" as="geometry" />
        </mxCell>
        <mxCell id="IO4kXUlpSUVHqf_dKEk6-53" value="&lt;font style=&quot;font-size: 18px;&quot;&gt;&lt;b&gt;B&lt;/b&gt;&lt;/font&gt;" style="ellipse;whiteSpace=wrap;html=1;aspect=fixed;fillColor=#cce5ff;strokeColor=#36393d;" vertex="1" parent="1">
          <mxGeometry x="930" y="1040" width="40" height="40" as="geometry" />
        </mxCell>
        <mxCell id="IO4kXUlpSUVHqf_dKEk6-54" value="&lt;font style=&quot;font-size: 18px;&quot;&gt;&lt;b&gt;C&lt;/b&gt;&lt;/font&gt;" style="ellipse;whiteSpace=wrap;html=1;aspect=fixed;fillColor=#ffcccc;strokeColor=#36393d;" vertex="1" parent="1">
          <mxGeometry x="1010" y="1040" width="40" height="40" as="geometry" />
        </mxCell>
        <mxCell id="IO4kXUlpSUVHqf_dKEk6-55" value="&lt;font style=&quot;font-size: 18px;&quot;&gt;&lt;b&gt;D&lt;/b&gt;&lt;/font&gt;" style="ellipse;whiteSpace=wrap;html=1;aspect=fixed;fillColor=#ffcccc;strokeColor=#36393d;" vertex="1" parent="1">
          <mxGeometry x="1090" y="1040" width="40" height="40" as="geometry" />
        </mxCell>
        <mxCell id="IO4kXUlpSUVHqf_dKEk6-56" value="&lt;font style=&quot;font-size: 18px;&quot;&gt;&lt;b&gt;E&lt;/b&gt;&lt;/font&gt;" style="ellipse;whiteSpace=wrap;html=1;aspect=fixed;" vertex="1" parent="1">
          <mxGeometry x="1170" y="1040" width="40" height="40" as="geometry" />
        </mxCell>
        <mxCell id="IO4kXUlpSUVHqf_dKEk6-57" value="10" style="text;html=1;strokeColor=none;fillColor=none;align=center;verticalAlign=middle;whiteSpace=wrap;rounded=0;" vertex="1" parent="1">
          <mxGeometry x="930" y="1090" width="40" height="20" as="geometry" />
        </mxCell>
        <mxCell id="IO4kXUlpSUVHqf_dKEk6-58" value="20" style="text;html=1;strokeColor=none;fillColor=none;align=center;verticalAlign=middle;whiteSpace=wrap;rounded=0;" vertex="1" parent="1">
          <mxGeometry x="1010" y="1090" width="40" height="20" as="geometry" />
        </mxCell>
        <mxCell id="IO4kXUlpSUVHqf_dKEk6-59" value="0" style="text;html=1;strokeColor=none;fillColor=none;align=center;verticalAlign=middle;whiteSpace=wrap;rounded=0;" vertex="1" parent="1">
          <mxGeometry x="850" y="1090" width="40" height="20" as="geometry" />
        </mxCell>
        <mxCell id="IO4kXUlpSUVHqf_dKEk6-60" value="5" style="text;html=1;strokeColor=none;fillColor=none;align=center;verticalAlign=middle;whiteSpace=wrap;rounded=0;" vertex="1" parent="1">
          <mxGeometry x="1090" y="1090" width="40" height="20" as="geometry" />
        </mxCell>
        <mxCell id="IO4kXUlpSUVHqf_dKEk6-61" value="inf" style="text;html=1;strokeColor=none;fillColor=none;align=center;verticalAlign=middle;whiteSpace=wrap;rounded=0;" vertex="1" parent="1">
          <mxGeometry x="1170" y="1090" width="40" height="20" as="geometry" />
        </mxCell>
        <mxCell id="IO4kXUlpSUVHqf_dKEk6-62" style="rounded=0;orthogonalLoop=1;jettySize=auto;html=1;exitX=0.5;exitY=1;exitDx=0;exitDy=0;entryX=0.5;entryY=0;entryDx=0;entryDy=0;endArrow=none;endFill=0;strokeColor=#009900;strokeWidth=2;" edge="1" parent="1" source="IO4kXUlpSUVHqf_dKEk6-63" target="IO4kXUlpSUVHqf_dKEk6-73">
          <mxGeometry relative="1" as="geometry" />
        </mxCell>
        <mxCell id="IO4kXUlpSUVHqf_dKEk6-63" value="&lt;font style=&quot;font-size: 18px;&quot;&gt;&lt;b&gt;D&lt;/b&gt;&lt;/font&gt;" style="ellipse;whiteSpace=wrap;html=1;aspect=fixed;fillColor=#cce5ff;strokeColor=#36393d;" vertex="1" parent="1">
          <mxGeometry x="680" y="1440" width="40" height="40" as="geometry" />
        </mxCell>
        <mxCell id="IO4kXUlpSUVHqf_dKEk6-64" style="rounded=0;orthogonalLoop=1;jettySize=auto;html=1;exitX=1;exitY=0.5;exitDx=0;exitDy=0;entryX=0;entryY=0.5;entryDx=0;entryDy=0;endArrow=none;endFill=0;" edge="1" parent="1" source="IO4kXUlpSUVHqf_dKEk6-66" target="IO4kXUlpSUVHqf_dKEk6-73">
          <mxGeometry relative="1" as="geometry" />
        </mxCell>
        <mxCell id="IO4kXUlpSUVHqf_dKEk6-65" style="rounded=0;orthogonalLoop=1;jettySize=auto;html=1;exitX=1;exitY=0;exitDx=0;exitDy=0;entryX=0;entryY=1;entryDx=0;entryDy=0;endArrow=none;endFill=0;" edge="1" parent="1" source="IO4kXUlpSUVHqf_dKEk6-66" target="IO4kXUlpSUVHqf_dKEk6-63">
          <mxGeometry relative="1" as="geometry" />
        </mxCell>
        <mxCell id="IO4kXUlpSUVHqf_dKEk6-66" value="&lt;font style=&quot;font-size: 18px;&quot;&gt;&lt;b&gt;C&lt;/b&gt;&lt;/font&gt;" style="ellipse;whiteSpace=wrap;html=1;aspect=fixed;fillColor=#f8cecc;strokeColor=#b85450;" vertex="1" parent="1">
          <mxGeometry x="480" y="1600" width="40" height="40" as="geometry" />
        </mxCell>
        <mxCell id="IO4kXUlpSUVHqf_dKEk6-67" style="rounded=0;orthogonalLoop=1;jettySize=auto;html=1;exitX=1;exitY=0;exitDx=0;exitDy=0;entryX=0;entryY=0.5;entryDx=0;entryDy=0;endArrow=none;endFill=0;fillColor=#cdeb8b;strokeColor=#009900;strokeWidth=2;" edge="1" parent="1" source="IO4kXUlpSUVHqf_dKEk6-69" target="IO4kXUlpSUVHqf_dKEk6-72">
          <mxGeometry relative="1" as="geometry" />
        </mxCell>
        <mxCell id="IO4kXUlpSUVHqf_dKEk6-68" style="rounded=0;orthogonalLoop=1;jettySize=auto;html=1;exitX=1;exitY=1;exitDx=0;exitDy=0;entryX=0;entryY=0.5;entryDx=0;entryDy=0;endArrow=none;endFill=0;" edge="1" parent="1" source="IO4kXUlpSUVHqf_dKEk6-69" target="IO4kXUlpSUVHqf_dKEk6-66">
          <mxGeometry relative="1" as="geometry" />
        </mxCell>
        <mxCell id="IO4kXUlpSUVHqf_dKEk6-69" value="&lt;font style=&quot;font-size: 18px;&quot;&gt;&lt;b&gt;A&lt;/b&gt;&lt;/font&gt;" style="ellipse;whiteSpace=wrap;html=1;aspect=fixed;fillColor=#CCCCCC;" vertex="1" parent="1">
          <mxGeometry x="320" y="1520" width="40" height="40" as="geometry" />
        </mxCell>
        <mxCell id="IO4kXUlpSUVHqf_dKEk6-70" style="rounded=0;orthogonalLoop=1;jettySize=auto;html=1;exitX=1;exitY=0.5;exitDx=0;exitDy=0;entryX=0;entryY=0.5;entryDx=0;entryDy=0;endArrow=none;endFill=0;strokeColor=#009900;strokeWidth=2;" edge="1" parent="1" source="IO4kXUlpSUVHqf_dKEk6-72" target="IO4kXUlpSUVHqf_dKEk6-63">
          <mxGeometry relative="1" as="geometry" />
        </mxCell>
        <mxCell id="IO4kXUlpSUVHqf_dKEk6-71" style="rounded=0;orthogonalLoop=1;jettySize=auto;html=1;exitX=0.5;exitY=1;exitDx=0;exitDy=0;entryX=0.5;entryY=0;entryDx=0;entryDy=0;endArrow=none;endFill=0;" edge="1" parent="1" source="IO4kXUlpSUVHqf_dKEk6-72" target="IO4kXUlpSUVHqf_dKEk6-66">
          <mxGeometry relative="1" as="geometry" />
        </mxCell>
        <mxCell id="IO4kXUlpSUVHqf_dKEk6-72" value="&lt;font style=&quot;font-size: 18px;&quot;&gt;&lt;b&gt;B&lt;/b&gt;&lt;/font&gt;" style="ellipse;whiteSpace=wrap;html=1;aspect=fixed;fillColor=#CCCCCC;strokeColor=#000000;" vertex="1" parent="1">
          <mxGeometry x="480" y="1440" width="40" height="40" as="geometry" />
        </mxCell>
        <mxCell id="IO4kXUlpSUVHqf_dKEk6-73" value="&lt;font style=&quot;font-size: 18px;&quot;&gt;&lt;b&gt;E&lt;/b&gt;&lt;/font&gt;" style="ellipse;whiteSpace=wrap;html=1;aspect=fixed;fillColor=#ffcccc;strokeColor=#36393d;" vertex="1" parent="1">
          <mxGeometry x="680" y="1600" width="40" height="40" as="geometry" />
        </mxCell>
        <mxCell id="IO4kXUlpSUVHqf_dKEk6-74" value="10" style="text;html=1;strokeColor=none;fillColor=none;align=center;verticalAlign=middle;whiteSpace=wrap;rounded=0;" vertex="1" parent="1">
          <mxGeometry x="390" y="1460" width="30" height="30" as="geometry" />
        </mxCell>
        <mxCell id="IO4kXUlpSUVHqf_dKEk6-75" value="15" style="text;html=1;strokeColor=none;fillColor=none;align=center;verticalAlign=middle;whiteSpace=wrap;rounded=0;" vertex="1" parent="1">
          <mxGeometry x="580" y="1500" width="30" height="30" as="geometry" />
        </mxCell>
        <mxCell id="IO4kXUlpSUVHqf_dKEk6-76" value="30" style="text;html=1;strokeColor=none;fillColor=none;align=center;verticalAlign=middle;whiteSpace=wrap;rounded=0;" vertex="1" parent="1">
          <mxGeometry x="465" y="1525" width="30" height="30" as="geometry" />
        </mxCell>
        <mxCell id="IO4kXUlpSUVHqf_dKEk6-77" value="20" style="text;html=1;strokeColor=none;fillColor=none;align=center;verticalAlign=middle;whiteSpace=wrap;rounded=0;" vertex="1" parent="1">
          <mxGeometry x="400" y="1595" width="30" height="30" as="geometry" />
        </mxCell>
        <mxCell id="IO4kXUlpSUVHqf_dKEk6-78" value="6" style="text;html=1;strokeColor=none;fillColor=none;align=center;verticalAlign=middle;whiteSpace=wrap;rounded=0;" vertex="1" parent="1">
          <mxGeometry x="590" y="1630" width="30" height="30" as="geometry" />
        </mxCell>
        <mxCell id="IO4kXUlpSUVHqf_dKEk6-79" value="8" style="text;html=1;strokeColor=none;fillColor=none;align=center;verticalAlign=middle;whiteSpace=wrap;rounded=0;" vertex="1" parent="1">
          <mxGeometry x="710" y="1520" width="30" height="30" as="geometry" />
        </mxCell>
        <mxCell id="IO4kXUlpSUVHqf_dKEk6-80" value="5" style="text;html=1;strokeColor=none;fillColor=none;align=center;verticalAlign=middle;whiteSpace=wrap;rounded=0;" vertex="1" parent="1">
          <mxGeometry x="590" y="1420" width="30" height="30" as="geometry" />
        </mxCell>
        <mxCell id="IO4kXUlpSUVHqf_dKEk6-81" style="rounded=0;orthogonalLoop=1;jettySize=auto;html=1;exitX=0.5;exitY=1;exitDx=0;exitDy=0;entryX=0.5;entryY=0;entryDx=0;entryDy=0;endArrow=none;endFill=0;strokeColor=#009900;strokeWidth=2;" edge="1" parent="1" source="IO4kXUlpSUVHqf_dKEk6-82" target="IO4kXUlpSUVHqf_dKEk6-92">
          <mxGeometry relative="1" as="geometry" />
        </mxCell>
        <mxCell id="IO4kXUlpSUVHqf_dKEk6-82" value="&lt;font style=&quot;font-size: 18px;&quot;&gt;&lt;b&gt;D&lt;/b&gt;&lt;/font&gt;" style="ellipse;whiteSpace=wrap;html=1;aspect=fixed;fillColor=#CCCCCC;strokeColor=#000000;" vertex="1" parent="1">
          <mxGeometry x="680" y="1880" width="40" height="40" as="geometry" />
        </mxCell>
        <mxCell id="IO4kXUlpSUVHqf_dKEk6-83" style="rounded=0;orthogonalLoop=1;jettySize=auto;html=1;exitX=1;exitY=0.5;exitDx=0;exitDy=0;entryX=0;entryY=0.5;entryDx=0;entryDy=0;endArrow=none;endFill=0;" edge="1" parent="1" source="IO4kXUlpSUVHqf_dKEk6-85" target="IO4kXUlpSUVHqf_dKEk6-92">
          <mxGeometry relative="1" as="geometry" />
        </mxCell>
        <mxCell id="IO4kXUlpSUVHqf_dKEk6-84" style="rounded=0;orthogonalLoop=1;jettySize=auto;html=1;exitX=1;exitY=0;exitDx=0;exitDy=0;entryX=0;entryY=1;entryDx=0;entryDy=0;endArrow=none;endFill=0;" edge="1" parent="1" source="IO4kXUlpSUVHqf_dKEk6-85" target="IO4kXUlpSUVHqf_dKEk6-82">
          <mxGeometry relative="1" as="geometry" />
        </mxCell>
        <mxCell id="IO4kXUlpSUVHqf_dKEk6-85" value="&lt;font style=&quot;font-size: 18px;&quot;&gt;&lt;b&gt;C&lt;/b&gt;&lt;/font&gt;" style="ellipse;whiteSpace=wrap;html=1;aspect=fixed;fillColor=#f8cecc;strokeColor=#b85450;" vertex="1" parent="1">
          <mxGeometry x="480" y="2040" width="40" height="40" as="geometry" />
        </mxCell>
        <mxCell id="IO4kXUlpSUVHqf_dKEk6-86" style="rounded=0;orthogonalLoop=1;jettySize=auto;html=1;exitX=1;exitY=0;exitDx=0;exitDy=0;entryX=0;entryY=0.5;entryDx=0;entryDy=0;endArrow=none;endFill=0;fillColor=#cdeb8b;strokeColor=#009900;strokeWidth=2;" edge="1" parent="1" source="IO4kXUlpSUVHqf_dKEk6-88" target="IO4kXUlpSUVHqf_dKEk6-91">
          <mxGeometry relative="1" as="geometry" />
        </mxCell>
        <mxCell id="IO4kXUlpSUVHqf_dKEk6-87" style="rounded=0;orthogonalLoop=1;jettySize=auto;html=1;exitX=1;exitY=1;exitDx=0;exitDy=0;entryX=0;entryY=0.5;entryDx=0;entryDy=0;endArrow=none;endFill=0;" edge="1" parent="1" source="IO4kXUlpSUVHqf_dKEk6-88" target="IO4kXUlpSUVHqf_dKEk6-85">
          <mxGeometry relative="1" as="geometry" />
        </mxCell>
        <mxCell id="IO4kXUlpSUVHqf_dKEk6-88" value="&lt;font style=&quot;font-size: 18px;&quot;&gt;&lt;b&gt;A&lt;/b&gt;&lt;/font&gt;" style="ellipse;whiteSpace=wrap;html=1;aspect=fixed;fillColor=#CCCCCC;" vertex="1" parent="1">
          <mxGeometry x="320" y="1960" width="40" height="40" as="geometry" />
        </mxCell>
        <mxCell id="IO4kXUlpSUVHqf_dKEk6-89" style="rounded=0;orthogonalLoop=1;jettySize=auto;html=1;exitX=1;exitY=0.5;exitDx=0;exitDy=0;entryX=0;entryY=0.5;entryDx=0;entryDy=0;endArrow=none;endFill=0;strokeColor=#009900;strokeWidth=2;" edge="1" parent="1" source="IO4kXUlpSUVHqf_dKEk6-91" target="IO4kXUlpSUVHqf_dKEk6-82">
          <mxGeometry relative="1" as="geometry" />
        </mxCell>
        <mxCell id="IO4kXUlpSUVHqf_dKEk6-90" style="rounded=0;orthogonalLoop=1;jettySize=auto;html=1;exitX=0.5;exitY=1;exitDx=0;exitDy=0;entryX=0.5;entryY=0;entryDx=0;entryDy=0;endArrow=none;endFill=0;" edge="1" parent="1" source="IO4kXUlpSUVHqf_dKEk6-91" target="IO4kXUlpSUVHqf_dKEk6-85">
          <mxGeometry relative="1" as="geometry" />
        </mxCell>
        <mxCell id="IO4kXUlpSUVHqf_dKEk6-91" value="&lt;font style=&quot;font-size: 18px;&quot;&gt;&lt;b&gt;B&lt;/b&gt;&lt;/font&gt;" style="ellipse;whiteSpace=wrap;html=1;aspect=fixed;fillColor=#CCCCCC;strokeColor=#000000;" vertex="1" parent="1">
          <mxGeometry x="480" y="1880" width="40" height="40" as="geometry" />
        </mxCell>
        <mxCell id="IO4kXUlpSUVHqf_dKEk6-92" value="&lt;font style=&quot;font-size: 18px;&quot;&gt;&lt;b&gt;E&lt;/b&gt;&lt;/font&gt;" style="ellipse;whiteSpace=wrap;html=1;aspect=fixed;fillColor=#cce5ff;strokeColor=#36393d;" vertex="1" parent="1">
          <mxGeometry x="680" y="2040" width="40" height="40" as="geometry" />
        </mxCell>
        <mxCell id="IO4kXUlpSUVHqf_dKEk6-93" value="10" style="text;html=1;strokeColor=none;fillColor=none;align=center;verticalAlign=middle;whiteSpace=wrap;rounded=0;" vertex="1" parent="1">
          <mxGeometry x="390" y="1900" width="30" height="30" as="geometry" />
        </mxCell>
        <mxCell id="IO4kXUlpSUVHqf_dKEk6-94" value="15" style="text;html=1;strokeColor=none;fillColor=none;align=center;verticalAlign=middle;whiteSpace=wrap;rounded=0;" vertex="1" parent="1">
          <mxGeometry x="580" y="1940" width="30" height="30" as="geometry" />
        </mxCell>
        <mxCell id="IO4kXUlpSUVHqf_dKEk6-95" value="30" style="text;html=1;strokeColor=none;fillColor=none;align=center;verticalAlign=middle;whiteSpace=wrap;rounded=0;" vertex="1" parent="1">
          <mxGeometry x="465" y="1965" width="30" height="30" as="geometry" />
        </mxCell>
        <mxCell id="IO4kXUlpSUVHqf_dKEk6-96" value="20" style="text;html=1;strokeColor=none;fillColor=none;align=center;verticalAlign=middle;whiteSpace=wrap;rounded=0;" vertex="1" parent="1">
          <mxGeometry x="400" y="2035" width="30" height="30" as="geometry" />
        </mxCell>
        <mxCell id="IO4kXUlpSUVHqf_dKEk6-97" value="6" style="text;html=1;strokeColor=none;fillColor=none;align=center;verticalAlign=middle;whiteSpace=wrap;rounded=0;" vertex="1" parent="1">
          <mxGeometry x="590" y="2070" width="30" height="30" as="geometry" />
        </mxCell>
        <mxCell id="IO4kXUlpSUVHqf_dKEk6-98" value="8" style="text;html=1;strokeColor=none;fillColor=none;align=center;verticalAlign=middle;whiteSpace=wrap;rounded=0;" vertex="1" parent="1">
          <mxGeometry x="710" y="1960" width="30" height="30" as="geometry" />
        </mxCell>
        <mxCell id="IO4kXUlpSUVHqf_dKEk6-99" value="5" style="text;html=1;strokeColor=none;fillColor=none;align=center;verticalAlign=middle;whiteSpace=wrap;rounded=0;" vertex="1" parent="1">
          <mxGeometry x="590" y="1860" width="30" height="30" as="geometry" />
        </mxCell>
        <mxCell id="IO4kXUlpSUVHqf_dKEk6-100" style="rounded=0;orthogonalLoop=1;jettySize=auto;html=1;exitX=0.5;exitY=1;exitDx=0;exitDy=0;entryX=0.5;entryY=0;entryDx=0;entryDy=0;endArrow=none;endFill=0;strokeColor=#009900;strokeWidth=2;" edge="1" parent="1" source="IO4kXUlpSUVHqf_dKEk6-101" target="IO4kXUlpSUVHqf_dKEk6-111">
          <mxGeometry relative="1" as="geometry" />
        </mxCell>
        <mxCell id="IO4kXUlpSUVHqf_dKEk6-101" value="&lt;font style=&quot;font-size: 18px;&quot;&gt;&lt;b&gt;D&lt;/b&gt;&lt;/font&gt;" style="ellipse;whiteSpace=wrap;html=1;aspect=fixed;fillColor=#CCCCCC;strokeColor=#000000;" vertex="1" parent="1">
          <mxGeometry x="680" y="2300" width="40" height="40" as="geometry" />
        </mxCell>
        <mxCell id="IO4kXUlpSUVHqf_dKEk6-102" style="rounded=0;orthogonalLoop=1;jettySize=auto;html=1;exitX=1;exitY=0.5;exitDx=0;exitDy=0;entryX=0;entryY=0.5;entryDx=0;entryDy=0;endArrow=none;endFill=0;strokeColor=#009900;strokeWidth=2;" edge="1" parent="1" source="IO4kXUlpSUVHqf_dKEk6-104" target="IO4kXUlpSUVHqf_dKEk6-111">
          <mxGeometry relative="1" as="geometry" />
        </mxCell>
        <mxCell id="IO4kXUlpSUVHqf_dKEk6-104" value="&lt;font style=&quot;font-size: 18px;&quot;&gt;&lt;b&gt;C&lt;/b&gt;&lt;/font&gt;" style="ellipse;whiteSpace=wrap;html=1;aspect=fixed;fillColor=#CCCCCC;strokeColor=#000000;" vertex="1" parent="1">
          <mxGeometry x="480" y="2460" width="40" height="40" as="geometry" />
        </mxCell>
        <mxCell id="IO4kXUlpSUVHqf_dKEk6-105" style="rounded=0;orthogonalLoop=1;jettySize=auto;html=1;exitX=1;exitY=0;exitDx=0;exitDy=0;entryX=0;entryY=0.5;entryDx=0;entryDy=0;endArrow=none;endFill=0;fillColor=#cdeb8b;strokeColor=#009900;strokeWidth=2;" edge="1" parent="1" source="IO4kXUlpSUVHqf_dKEk6-107" target="IO4kXUlpSUVHqf_dKEk6-110">
          <mxGeometry relative="1" as="geometry" />
        </mxCell>
        <mxCell id="IO4kXUlpSUVHqf_dKEk6-107" value="&lt;font style=&quot;font-size: 18px;&quot;&gt;&lt;b&gt;A&lt;/b&gt;&lt;/font&gt;" style="ellipse;whiteSpace=wrap;html=1;aspect=fixed;fillColor=#CCCCCC;" vertex="1" parent="1">
          <mxGeometry x="320" y="2380" width="40" height="40" as="geometry" />
        </mxCell>
        <mxCell id="IO4kXUlpSUVHqf_dKEk6-108" style="rounded=0;orthogonalLoop=1;jettySize=auto;html=1;exitX=1;exitY=0.5;exitDx=0;exitDy=0;entryX=0;entryY=0.5;entryDx=0;entryDy=0;endArrow=none;endFill=0;strokeColor=#009900;strokeWidth=2;" edge="1" parent="1" source="IO4kXUlpSUVHqf_dKEk6-110" target="IO4kXUlpSUVHqf_dKEk6-101">
          <mxGeometry relative="1" as="geometry" />
        </mxCell>
        <mxCell id="IO4kXUlpSUVHqf_dKEk6-110" value="&lt;font style=&quot;font-size: 18px;&quot;&gt;&lt;b&gt;B&lt;/b&gt;&lt;/font&gt;" style="ellipse;whiteSpace=wrap;html=1;aspect=fixed;fillColor=#CCCCCC;strokeColor=#000000;" vertex="1" parent="1">
          <mxGeometry x="480" y="2300" width="40" height="40" as="geometry" />
        </mxCell>
        <mxCell id="IO4kXUlpSUVHqf_dKEk6-111" value="&lt;font style=&quot;font-size: 18px;&quot;&gt;&lt;b&gt;E&lt;/b&gt;&lt;/font&gt;" style="ellipse;whiteSpace=wrap;html=1;aspect=fixed;fillColor=#CCCCCC;strokeColor=#000000;" vertex="1" parent="1">
          <mxGeometry x="680" y="2460" width="40" height="40" as="geometry" />
        </mxCell>
        <mxCell id="IO4kXUlpSUVHqf_dKEk6-112" value="10" style="text;html=1;strokeColor=none;fillColor=none;align=center;verticalAlign=middle;whiteSpace=wrap;rounded=0;" vertex="1" parent="1">
          <mxGeometry x="390" y="2320" width="30" height="30" as="geometry" />
        </mxCell>
        <mxCell id="IO4kXUlpSUVHqf_dKEk6-116" value="6" style="text;html=1;strokeColor=none;fillColor=none;align=center;verticalAlign=middle;whiteSpace=wrap;rounded=0;" vertex="1" parent="1">
          <mxGeometry x="590" y="2490" width="30" height="30" as="geometry" />
        </mxCell>
        <mxCell id="IO4kXUlpSUVHqf_dKEk6-117" value="8" style="text;html=1;strokeColor=none;fillColor=none;align=center;verticalAlign=middle;whiteSpace=wrap;rounded=0;" vertex="1" parent="1">
          <mxGeometry x="710" y="2380" width="30" height="30" as="geometry" />
        </mxCell>
        <mxCell id="IO4kXUlpSUVHqf_dKEk6-118" value="5" style="text;html=1;strokeColor=none;fillColor=none;align=center;verticalAlign=middle;whiteSpace=wrap;rounded=0;" vertex="1" parent="1">
          <mxGeometry x="590" y="2280" width="30" height="30" as="geometry" />
        </mxCell>
        <mxCell id="IO4kXUlpSUVHqf_dKEk6-119" value="&lt;font style=&quot;font-size: 18px;&quot;&gt;&lt;b&gt;A&lt;/b&gt;&lt;/font&gt;" style="ellipse;whiteSpace=wrap;html=1;aspect=fixed;fillColor=#CCCCCC;" vertex="1" parent="1">
          <mxGeometry x="850" y="1440" width="40" height="40" as="geometry" />
        </mxCell>
        <mxCell id="IO4kXUlpSUVHqf_dKEk6-120" value="&lt;font style=&quot;font-size: 18px;&quot;&gt;&lt;b&gt;B&lt;/b&gt;&lt;/font&gt;" style="ellipse;whiteSpace=wrap;html=1;aspect=fixed;fillColor=#CCCCCC;strokeColor=#000000;" vertex="1" parent="1">
          <mxGeometry x="930" y="1440" width="40" height="40" as="geometry" />
        </mxCell>
        <mxCell id="IO4kXUlpSUVHqf_dKEk6-121" value="&lt;font style=&quot;font-size: 18px;&quot;&gt;&lt;b&gt;C&lt;/b&gt;&lt;/font&gt;" style="ellipse;whiteSpace=wrap;html=1;aspect=fixed;fillColor=#f8cecc;strokeColor=#b85450;" vertex="1" parent="1">
          <mxGeometry x="1010" y="1440" width="40" height="40" as="geometry" />
        </mxCell>
        <mxCell id="IO4kXUlpSUVHqf_dKEk6-122" value="&lt;font style=&quot;font-size: 18px;&quot;&gt;&lt;b&gt;D&lt;/b&gt;&lt;/font&gt;" style="ellipse;whiteSpace=wrap;html=1;aspect=fixed;fillColor=#cce5ff;strokeColor=#36393d;" vertex="1" parent="1">
          <mxGeometry x="1090" y="1440" width="40" height="40" as="geometry" />
        </mxCell>
        <mxCell id="IO4kXUlpSUVHqf_dKEk6-123" value="&lt;font style=&quot;font-size: 18px;&quot;&gt;&lt;b&gt;E&lt;/b&gt;&lt;/font&gt;" style="ellipse;whiteSpace=wrap;html=1;aspect=fixed;fillColor=#ffcccc;strokeColor=#36393d;" vertex="1" parent="1">
          <mxGeometry x="1170" y="1440" width="40" height="40" as="geometry" />
        </mxCell>
        <mxCell id="IO4kXUlpSUVHqf_dKEk6-124" value="10" style="text;html=1;strokeColor=none;fillColor=none;align=center;verticalAlign=middle;whiteSpace=wrap;rounded=0;" vertex="1" parent="1">
          <mxGeometry x="930" y="1490" width="40" height="20" as="geometry" />
        </mxCell>
        <mxCell id="IO4kXUlpSUVHqf_dKEk6-125" value="15" style="text;html=1;strokeColor=none;fillColor=none;align=center;verticalAlign=middle;whiteSpace=wrap;rounded=0;" vertex="1" parent="1">
          <mxGeometry x="1010" y="1490" width="40" height="20" as="geometry" />
        </mxCell>
        <mxCell id="IO4kXUlpSUVHqf_dKEk6-126" value="0" style="text;html=1;strokeColor=none;fillColor=none;align=center;verticalAlign=middle;whiteSpace=wrap;rounded=0;" vertex="1" parent="1">
          <mxGeometry x="850" y="1490" width="40" height="20" as="geometry" />
        </mxCell>
        <mxCell id="IO4kXUlpSUVHqf_dKEk6-127" value="5" style="text;html=1;strokeColor=none;fillColor=none;align=center;verticalAlign=middle;whiteSpace=wrap;rounded=0;" vertex="1" parent="1">
          <mxGeometry x="1090" y="1490" width="40" height="20" as="geometry" />
        </mxCell>
        <mxCell id="IO4kXUlpSUVHqf_dKEk6-128" value="8" style="text;html=1;strokeColor=none;fillColor=none;align=center;verticalAlign=middle;whiteSpace=wrap;rounded=0;" vertex="1" parent="1">
          <mxGeometry x="1170" y="1490" width="40" height="20" as="geometry" />
        </mxCell>
        <mxCell id="IO4kXUlpSUVHqf_dKEk6-139" value="&lt;font style=&quot;font-size: 18px;&quot;&gt;&lt;b&gt;A&lt;/b&gt;&lt;/font&gt;" style="ellipse;whiteSpace=wrap;html=1;aspect=fixed;fillColor=#CCCCCC;" vertex="1" parent="1">
          <mxGeometry x="850" y="2300" width="40" height="40" as="geometry" />
        </mxCell>
        <mxCell id="IO4kXUlpSUVHqf_dKEk6-140" value="&lt;font style=&quot;font-size: 18px;&quot;&gt;&lt;b&gt;B&lt;/b&gt;&lt;/font&gt;" style="ellipse;whiteSpace=wrap;html=1;aspect=fixed;fillColor=#CCCCCC;strokeColor=#000000;" vertex="1" parent="1">
          <mxGeometry x="930" y="2300" width="40" height="40" as="geometry" />
        </mxCell>
        <mxCell id="IO4kXUlpSUVHqf_dKEk6-141" value="&lt;font style=&quot;font-size: 18px;&quot;&gt;&lt;b&gt;C&lt;/b&gt;&lt;/font&gt;" style="ellipse;whiteSpace=wrap;html=1;aspect=fixed;fillColor=#CCCCCC;strokeColor=#000000;" vertex="1" parent="1">
          <mxGeometry x="1010" y="2300" width="40" height="40" as="geometry" />
        </mxCell>
        <mxCell id="IO4kXUlpSUVHqf_dKEk6-142" value="&lt;font style=&quot;font-size: 18px;&quot;&gt;&lt;b&gt;D&lt;/b&gt;&lt;/font&gt;" style="ellipse;whiteSpace=wrap;html=1;aspect=fixed;strokeColor=#000000;fillColor=#CCCCCC;" vertex="1" parent="1">
          <mxGeometry x="1090" y="2300" width="40" height="40" as="geometry" />
        </mxCell>
        <mxCell id="IO4kXUlpSUVHqf_dKEk6-143" value="&lt;font style=&quot;font-size: 18px;&quot;&gt;&lt;b&gt;E&lt;/b&gt;&lt;/font&gt;" style="ellipse;whiteSpace=wrap;html=1;aspect=fixed;strokeColor=#000000;fillColor=#CCCCCC;" vertex="1" parent="1">
          <mxGeometry x="1170" y="2300" width="40" height="40" as="geometry" />
        </mxCell>
        <mxCell id="IO4kXUlpSUVHqf_dKEk6-144" value="10" style="text;html=1;strokeColor=none;fillColor=none;align=center;verticalAlign=middle;whiteSpace=wrap;rounded=0;" vertex="1" parent="1">
          <mxGeometry x="930" y="2350" width="40" height="20" as="geometry" />
        </mxCell>
        <mxCell id="IO4kXUlpSUVHqf_dKEk6-145" value="6" style="text;html=1;strokeColor=none;fillColor=none;align=center;verticalAlign=middle;whiteSpace=wrap;rounded=0;" vertex="1" parent="1">
          <mxGeometry x="1010" y="2350" width="40" height="20" as="geometry" />
        </mxCell>
        <mxCell id="IO4kXUlpSUVHqf_dKEk6-146" value="0" style="text;html=1;strokeColor=none;fillColor=none;align=center;verticalAlign=middle;whiteSpace=wrap;rounded=0;" vertex="1" parent="1">
          <mxGeometry x="850" y="2350" width="40" height="20" as="geometry" />
        </mxCell>
        <mxCell id="IO4kXUlpSUVHqf_dKEk6-147" value="5" style="text;html=1;strokeColor=none;fillColor=none;align=center;verticalAlign=middle;whiteSpace=wrap;rounded=0;" vertex="1" parent="1">
          <mxGeometry x="1090" y="2350" width="40" height="20" as="geometry" />
        </mxCell>
        <mxCell id="IO4kXUlpSUVHqf_dKEk6-148" value="8" style="text;html=1;strokeColor=none;fillColor=none;align=center;verticalAlign=middle;whiteSpace=wrap;rounded=0;" vertex="1" parent="1">
          <mxGeometry x="1170" y="2350" width="40" height="20" as="geometry" />
        </mxCell>
        <mxCell id="IO4kXUlpSUVHqf_dKEk6-149" value="Now, loop through A&#39;s edges and assess their cost.&amp;nbsp; Update B &amp;amp; C if necessary.&amp;nbsp; Then mark A as visited." style="text;html=1;strokeColor=none;fillColor=none;align=left;verticalAlign=middle;whiteSpace=wrap;rounded=0;fontSize=14;" vertex="1" parent="1">
          <mxGeometry x="870" y="710" width="340" height="40" as="geometry" />
        </mxCell>
        <mxCell id="IO4kXUlpSUVHqf_dKEk6-150" value="&lt;font style=&quot;font-size: 18px;&quot;&gt;&lt;b&gt;A&lt;/b&gt;&lt;/font&gt;" style="ellipse;whiteSpace=wrap;html=1;aspect=fixed;fillColor=#CCCCCC;" vertex="1" parent="1">
          <mxGeometry x="850" y="1880" width="40" height="40" as="geometry" />
        </mxCell>
        <mxCell id="IO4kXUlpSUVHqf_dKEk6-151" value="&lt;font style=&quot;font-size: 18px;&quot;&gt;&lt;b&gt;B&lt;/b&gt;&lt;/font&gt;" style="ellipse;whiteSpace=wrap;html=1;aspect=fixed;fillColor=#CCCCCC;strokeColor=#000000;" vertex="1" parent="1">
          <mxGeometry x="930" y="1880" width="40" height="40" as="geometry" />
        </mxCell>
        <mxCell id="IO4kXUlpSUVHqf_dKEk6-152" value="&lt;font style=&quot;font-size: 18px;&quot;&gt;&lt;b&gt;C&lt;/b&gt;&lt;/font&gt;" style="ellipse;whiteSpace=wrap;html=1;aspect=fixed;fillColor=#f8cecc;strokeColor=#b85450;" vertex="1" parent="1">
          <mxGeometry x="1010" y="1880" width="40" height="40" as="geometry" />
        </mxCell>
        <mxCell id="IO4kXUlpSUVHqf_dKEk6-153" value="&lt;font style=&quot;font-size: 18px;&quot;&gt;&lt;b&gt;D&lt;/b&gt;&lt;/font&gt;" style="ellipse;whiteSpace=wrap;html=1;aspect=fixed;fillColor=#CCCCCC;strokeColor=#36393d;" vertex="1" parent="1">
          <mxGeometry x="1090" y="1880" width="40" height="40" as="geometry" />
        </mxCell>
        <mxCell id="IO4kXUlpSUVHqf_dKEk6-154" value="&lt;font style=&quot;font-size: 18px;&quot;&gt;&lt;b&gt;E&lt;/b&gt;&lt;/font&gt;" style="ellipse;whiteSpace=wrap;html=1;aspect=fixed;fillColor=#cce5ff;strokeColor=#36393d;" vertex="1" parent="1">
          <mxGeometry x="1170" y="1880" width="40" height="40" as="geometry" />
        </mxCell>
        <mxCell id="IO4kXUlpSUVHqf_dKEk6-155" value="10" style="text;html=1;strokeColor=none;fillColor=none;align=center;verticalAlign=middle;whiteSpace=wrap;rounded=0;" vertex="1" parent="1">
          <mxGeometry x="930" y="1930" width="40" height="20" as="geometry" />
        </mxCell>
        <mxCell id="IO4kXUlpSUVHqf_dKEk6-156" value="15" style="text;html=1;strokeColor=none;fillColor=none;align=center;verticalAlign=middle;whiteSpace=wrap;rounded=0;" vertex="1" parent="1">
          <mxGeometry x="1010" y="1930" width="40" height="20" as="geometry" />
        </mxCell>
        <mxCell id="IO4kXUlpSUVHqf_dKEk6-157" value="0" style="text;html=1;strokeColor=none;fillColor=none;align=center;verticalAlign=middle;whiteSpace=wrap;rounded=0;" vertex="1" parent="1">
          <mxGeometry x="850" y="1930" width="40" height="20" as="geometry" />
        </mxCell>
        <mxCell id="IO4kXUlpSUVHqf_dKEk6-158" value="5" style="text;html=1;strokeColor=none;fillColor=none;align=center;verticalAlign=middle;whiteSpace=wrap;rounded=0;" vertex="1" parent="1">
          <mxGeometry x="1090" y="1930" width="40" height="20" as="geometry" />
        </mxCell>
        <mxCell id="IO4kXUlpSUVHqf_dKEk6-159" value="8" style="text;html=1;strokeColor=none;fillColor=none;align=center;verticalAlign=middle;whiteSpace=wrap;rounded=0;" vertex="1" parent="1">
          <mxGeometry x="1170" y="1930" width="40" height="20" as="geometry" />
        </mxCell>
      </root>
    </mxGraphModel>
  </diagram>
</mxfile>
